# xmcd
#
# Track frame offsets:
#   150
#   18034
#   34396
#   50020
#   68789
#   84138
#   105871
#   110607
#   113368
#   141078
#   158865
#   174921
#
# Disc length: 2515 seconds
#
# Revision: 0
# Processed by: cddbd v1.5.1PL2 Copyright (c) Steve Scherf et al.
# Submitted via: GXTranscoder 2.0.1939
#
DISCID=8809d10c
DTITLE=sdf - sdf
DYEAR=1900
DGENRE=Blues
TTITLE0=Laudato Si
TTITLE1=sdf
TTITLE2=sdfsdf
TTITLE3=sdfsdf
TTITLE4=sdfsdf
TTITLE5=sdfsdf
TTITLE6=sdfsdf
TTITLE7=sdfsdf
TTITLE8=sdfsdf
TTITLE9=sdfsdf
TTITLE10=sfsdf
TTITLE11=fsdfsdfsd
EXTD=
EXTT0=
EXTT1=
EXTT2=
EXTT3=
EXTT4=
EXTT5=
EXTT6=
EXTT7=
EXTT8=
EXTT9=
EXTT10=
EXTT11=
PLAYORDER=
